<svg xmlns="http://www.w3.org/2000/svg" viewBox="0 0 96 40" fill="none" aria-hidden="true">
  <defs>
    <linearGradient id="mmGrad" x1="0%" y1="0%" x2="100%" y2="0%">
      <stop offset="0%" stop-color="#7C3AED"/>
      <stop offset="45%" stop-color="#2563EB"/>
      <stop offset="100%" stop-color="#06B6D4"/>
    </linearGradient>
  </defs>
  <!-- Waveform: implied "M" + jagged pulse, ends with upward flick (sparkle zone) -->
  <path
    d="M4 27h5l5.5-14 6.5 14 7-16 6 14 8-11 7 10 8-8 6.5 9 8.5-17 5 12 7-19 4.5 14"
    stroke="url(#mmGrad)"
    stroke-width="3.25"
    stroke-linecap="round"
    stroke-linejoin="round"/>
  <!-- Sparkles: solid cyan per asset kit (not gradient) -->
  <path fill="#22D3EE" d="M84.2 3.8l1.15 2.6 2.6 1.15-2.6 1.15-1.15 2.6-1.15-2.6-2.6-1.15 2.6-1.15 1.15-2.6z"/>
  <path fill="#22D3EE" d="M91 1.4l.7 1.55 1.55.7-1.55.7L91 5.9l-.7-1.55-1.55-.7 1.55-.7.7-1.55z"/>
  <path fill="#22D3EE" d="M89.5 9.2l.5 1.1 1.1.5-1.1.5-.5 1.1-.5-1.1-1.1-.5 1.1-.5.5-1.1z"/>
</svg>
